<?xml version="1.0" encoding="UTF-8" standalone="no"?>
<!-- Created with Inkscape (http://www.inkscape.org/) -->
<svg
   xmlns:svg="http://www.w3.org/2000/svg"
   xmlns="http://www.w3.org/2000/svg"
   version="1.0"
   width="1133.8583"
   height="272.48032"
   id="svg2">
  <defs
     id="defs4" />
  <g
     transform="translate(-1156.7973,954.50232)"
     id="layer1">
    <g
       transform="translate(45.433088,35.377903)"
       id="g89504">
      <path
         d="M 1188.8904,-768.72744 C 1201.9824,-767.91403 1418.6622,-754.0345 1665.3738,-752.77781 C 1912.085,-754.0345 2128.7738,-767.91403 2141.8657,-768.72744 C 2167.8775,-771.5593 2173.9585,-783.0933 2173.9585,-800.82037 L 2173.9585,-906.45977 C 2173.9585,-924.18684 2167.8775,-935.72084 2141.8657,-938.55269 C 2128.7738,-939.3661 1912.0936,-953.24563 1665.3824,-954.50232 C 1418.6708,-953.24563 1201.9824,-939.3661 1188.8904,-938.55269 C 1162.8786,-935.72084 1156.7973,-924.18684 1156.7973,-906.45977 L 1156.7973,-800.82037 C 1156.7973,-783.0933 1162.8786,-771.5593 1188.8904,-768.72744 z M 2089.4504,-839.11067 C 2089.0889,-846.93916 2072.7777,-851.01479 2052.7354,-850.48543 C 2032.6886,-849.96038 2016.7948,-845.04121 2017.1608,-837.21272 C 2017.5223,-829.38423 2033.8162,-825.64429 2053.863,-826.16935 C 2073.9053,-826.69871 2089.8164,-831.28648 2089.4504,-839.11067 z M 2118.4792,-894.23717 C 2121.1086,-894.30603 2105.3484,-872.37851 2105.3484,-872.37851 C 2105.3484,-872.37851 2088.1162,-882.09634 2060.185,-881.36471 C 2030.2827,-880.57712 2006.9651,-872.62813 2007.3827,-856.46331 C 2024.1328,-864.24016 2040.1169,-867.16239 2061.8032,-867.73479 C 2096.3064,-868.63857 2132.591,-859.59213 2133.5165,-839.6056 C 2134.5019,-818.28491 2092.1704,-808.83392 2057.0133,-807.90861 C 2001.478,-806.44965 1962.4042,-818.93047 1961.0012,-849.24165 C 1959.7187,-876.88883 2002.911,-896.19967 2055.1583,-897.57256 C 2075.8592,-898.11913 2090.0443,-897.32294 2099.9601,-896.25131 C 2109.8845,-895.17969 2115.5224,-894.1597 2118.4792,-894.23717 z M 1866.7753,-824.76633 L 1769.8942,-824.76633 L 1769.8942,-843.60807 L 1860.2725,-843.60807 L 1860.2725,-861.6321 L 1769.8942,-861.6321 L 1769.8942,-878.36501 L 1865.1485,-878.36501 L 1861.2665,-896.26853 L 1712.1553,-896.26853 L 1712.1553,-861.6321 L 1712.1553,-843.60807 L 1712.1553,-806.86281 L 1864.4599,-806.86281 L 1866.7753,-824.76633 z M 1670.8739,-802.67097 L 1688.7644,-806.94458 L 1688.7644,-896.3503 L 1634.8173,-896.3503 L 1634.8173,-847.43409 L 1533.3697,-900.3872 L 1515.8965,-896.3503 L 1515.8965,-806.94458 L 1569.8436,-806.94458 L 1569.8436,-854.22107 L 1670.8739,-802.67097 z M 1386.7629,-878.33058 L 1412.1766,-878.33058 L 1412.1766,-824.9643 L 1386.7629,-824.9643 L 1384.3184,-806.94458 L 1412.1766,-806.94458 L 1469.9155,-806.94458 L 1498.0144,-806.94458 L 1495.5698,-824.9643 L 1469.9155,-824.9643 L 1469.9155,-878.33058 L 1495.5698,-878.33058 L 1498.0144,-896.3503 L 1469.9155,-896.3503 L 1412.1766,-896.3503 L 1384.3184,-896.3503 L 1386.7629,-878.33058 z M 1367.3575,-806.94458 L 1367.3575,-831.79432 L 1321.8368,-824.8481 L 1275.236,-824.8481 L 1275.236,-896.3503 L 1217.4971,-896.3503 L 1217.4971,-806.94458 L 1321.8368,-806.94458 L 1367.3575,-806.94458 z M 1901.8597,-768.74896 C 1831.39,-766.36469 1750.2089,-764.4194 1665.3951,-763.96321 C 1419.8717,-765.27585 1214.08,-779.09083 1201.0355,-779.89993 C 1174.8688,-782.10774 1168.9469,-783.91531 1168.9469,-811.99285 L 1168.9469,-895.28728 C 1168.7014,-916.14747 1170.113,-926.06326 1201.0355,-927.38021 C 1214.08,-928.18931 1419.8717,-942.00429 1665.3951,-943.31692 C 1750.4971,-942.86073 1831.9368,-940.90253 1902.5738,-938.50535 C 1922.7369,-884.2396 1920.8044,-823.09648 1901.8597,-768.74896 z"
         id="path89458"
         style="fill:#000000;fill-opacity:1;fill-rule:evenodd;stroke:none" />
      <path
         d="M 2219.7894,-930.744 C 2219.7894,-927.76152 2219.0447,-924.99422 2217.5556,-922.4335 C 2216.0796,-919.88569 2214.061,-917.87584 2211.5004,-916.39966 C 2208.9526,-914.90627 2206.1896,-914.16603 2203.207,-914.16172 C 2200.2288,-914.16172 2197.4575,-914.90627 2194.8966,-916.39966 C 2192.3488,-917.87584 2190.3347,-919.88569 2188.8411,-922.4335 C 2187.3651,-924.99422 2186.6293,-927.76152 2186.6293,-930.744 C 2186.6293,-933.01637 2187.0552,-935.15533 2187.9074,-937.16947 C 2188.7767,-939.17932 2189.9773,-940.94385 2191.5098,-942.46306 C 2193.0588,-943.98228 2194.8409,-945.1615 2196.8505,-946.00073 C 2198.8774,-946.85287 2200.9949,-947.27894 2203.207,-947.27894 C 2205.4535,-947.27894 2207.584,-946.85287 2209.6109,-946.00073 C 2211.6382,-945.1615 2213.4068,-943.99089 2214.9303,-942.48458 C 2216.4453,-940.99549 2217.6331,-939.23527 2218.4852,-937.21251 C 2219.3546,-935.19837 2219.7894,-933.0465 2219.7894,-930.744 z M 2216.6002,-930.744 C 2216.6002,-932.61182 2216.2518,-934.33762 2215.5587,-935.93 C 2214.8787,-937.53529 2213.9147,-938.95552 2212.6711,-940.18639 C 2211.4402,-941.41295 2210.0027,-942.36838 2208.3501,-943.04837 C 2206.7061,-943.72836 2204.9891,-944.06836 2203.207,-944.06836 C 2201.4428,-944.06836 2199.7296,-943.72406 2198.0642,-943.02685 C 2196.4157,-942.34686 2194.9827,-941.40435 2193.7691,-940.20791 C 2192.5554,-939.00286 2191.5914,-937.58263 2190.8811,-935.93 C 2190.1884,-934.29458 2189.8396,-932.56448 2189.8396,-930.744 C 2189.8396,-928.31239 2190.4338,-926.07015 2191.6213,-924.01727 C 2192.8222,-921.9773 2194.4404,-920.35479 2196.4804,-919.15405 C 2198.5335,-917.96622 2200.7755,-917.37661 2203.207,-917.37661 C 2205.656,-917.37661 2207.8984,-917.97483 2209.9384,-919.17557 C 2211.9911,-920.37631 2213.6093,-921.99882 2214.7971,-924.03879 C 2215.9977,-926.09167 2216.6002,-928.32961 2216.6002,-930.744 z M 2211.0012,-921.84389 L 2205.7937,-921.84389 C 2204.8383,-923.82791 2204.0033,-925.39016 2203.2975,-926.53495 C 2202.6003,-927.69266 2202.0581,-928.38556 2201.6707,-928.61796 C 2201.2359,-928.82023 2200.7153,-928.91922 2200.1042,-928.91922 L 2200.1042,-921.84389 L 2195.7016,-921.84389 L 2195.7016,-939.59678 L 2203.6201,-939.59678 C 2205.5912,-939.59678 2207.1451,-939.19223 2208.2854,-938.38313 C 2209.4433,-937.58694 2210.0241,-936.31303 2210.0241,-934.56141 C 2210.0241,-932.98625 2209.5335,-931.82854 2208.5481,-931.0926 C 2207.5624,-930.35236 2206.4479,-929.87035 2205.2043,-929.63794 C 2206.1769,-929.20327 2206.9168,-928.64378 2207.4418,-927.9681 C 2207.9755,-927.30102 2208.6128,-926.27243 2209.3486,-924.88662 L 2211.0012,-921.84389 z M 2205.488,-934.30319 C 2205.488,-935.05634 2205.1826,-935.61152 2204.5756,-935.97304 C 2203.9816,-936.33455 2203.1856,-936.51531 2202.1872,-936.51531 L 2200.1042,-936.51531 L 2200.1042,-932.09107 L 2202.015,-932.09107 C 2203.1426,-932.09107 2204.0033,-932.25461 2204.5973,-932.5903 C 2205.1912,-932.9346 2205.488,-933.507 2205.488,-934.30319 z"
         id="path89464"
         style="fill:#000000;fill-opacity:1;fill-rule:evenodd;stroke:none" />
    </g>
  </g>
</svg>
